<?xml version="1.0" encoding="utf-8"?>
<!-- Generator: Adobe Illustrator 26.0.1, SVG Export Plug-In . SVG Version: 6.00 Build 0)  -->
<svg version="1.1" baseProfile="basic" id="Layer_1"
	 xmlns="http://www.w3.org/2000/svg" xmlns:xlink="http://www.w3.org/1999/xlink" x="0px" y="0px" viewBox="0 0 111.2 128.1"
	 xml:space="preserve">
<style type="text/css">
	.st0{fill:#0F0D0D;}
</style>
<g>
	<path class="st0" d="M-295.4,117.7c-4.7-3.3-8.8-7.7-12.4-13c-3.1-4.6-5.6-9.8-7.4-15.6c-1.8-5.8-2.7-12-2.7-18.7
		c0-11.2,2.4-21.1,7.2-29.8c4.8-8.7,11.4-15.5,19.8-20.5c8.4-5,17.9-7.5,28.4-7.5c10.7,0,20.3,2.5,28.7,7.5c8.4,5,15,11.8,19.8,20.5
		c4.8,8.7,7.2,18.6,7.2,29.8c0,6.5-0.9,12.7-2.6,18.4c-1.7,5.7-4.2,11-7.5,15.7c-3.6,5.5-7.7,9.9-12.3,13.2
		c-4.6,3.3-10.3,6.1-16.9,8.5c-3.4,1.2-6.4,1.1-8.8-0.2c-2.5-1.3-4.1-3.3-5-5.8c-0.9-2.5-0.7-5,0.4-7.5c1.2-2.5,3.6-4.3,7.1-5.7
		c4.5-1.5,8.1-3.2,10.9-5.2c2.8-2,5.5-4.8,8-8.4c2.1-3.1,3.7-6.6,4.8-10.5c1.1-3.9,1.7-8,1.7-12.5c0-7.3-1.5-13.8-4.6-19.5
		c-3-5.7-7.2-10.2-12.6-13.4c-5.4-3.2-11.5-4.8-18.5-4.8c-7,0-13.2,1.6-18.5,4.8c-5.4,3.2-9.5,7.7-12.5,13.4
		c-3,5.7-4.5,12.2-4.5,19.5c0,4.5,0.6,8.7,1.7,12.6c1.1,3.9,2.7,7.5,4.8,10.6c1.6,2.4,3.4,4.4,5.2,6c1.9,1.6,3.9,3,6.1,4.2
		c2.2,1.2,4.7,2.2,7.4,3.1c3.6,1.3,5.9,3.2,7.1,5.7c1.2,2.5,1.3,4.9,0.4,7.5c-0.9,2.5-2.6,4.5-5,5.8c-2.5,1.3-5.5,1.4-9,0.2
		C-285.3,123.8-290.7,121-295.4,117.7z"/>
	<path class="st0" d="M-262.2,19c-11.8,0-18.5-8.9-19.2-9.9c-2.1-2.9-1.4-7,1.5-9.1c2.9-2.1,7-1.4,9.1,1.5c0.1,0.2,3.4,4.6,8.9,4.5
		c5.2-0.1,8.3-4.3,8.4-4.5c2.1-2.9,6.1-3.6,9.1-1.5c2.9,2.1,3.6,6.1,1.5,9.1c-1.2,1.6-7.5,9.7-18.7,9.9C-261.8,19-262,19-262.2,19z"
		/>
	<g>
		<circle cx="-248.6" cy="80.1" r="2.6"/>
		<path d="M-248.6,88.7c-4.7,0-8.6-3.8-8.6-8.6s3.8-8.6,8.6-8.6c4.7,0,8.6,3.8,8.6,8.6S-243.9,88.7-248.6,88.7z M-248.6,76.8
			c-1.9,0-3.4,1.5-3.4,3.4s1.5,3.4,3.4,3.4s3.4-1.5,3.4-3.4S-246.7,76.8-248.6,76.8z"/>
	</g>
	<circle cx="-248.6" cy="83.5" r="4.4"/>
	<g>
		<circle cx="-275.8" cy="80.1" r="2.6"/>
		<path d="M-275.8,88.7c-4.7,0-8.6-3.8-8.6-8.6s3.8-8.6,8.6-8.6s8.6,3.8,8.6,8.6S-271,88.7-275.8,88.7z M-275.8,76.8
			c-1.9,0-3.4,1.5-3.4,3.4s1.5,3.4,3.4,3.4s3.4-1.5,3.4-3.4S-273.9,76.8-275.8,76.8z"/>
	</g>
	<circle cx="-275.8" cy="83.5" r="4.4"/>
</g>
<g>
	<path class="st0" d="M22.4,118.9c-4.9-3.5-9.1-7.9-12.4-13c-3.2-4.8-5.7-10.1-7.4-15.7C0.9,84.1-0.1,77.8,0,71.5
		c0-11.1,2.4-21.1,7.2-29.8c4.6-8.5,11.5-15.6,19.9-20.5c8.6-5,18.4-7.6,28.4-7.5c10.1-0.2,20,2.4,28.7,7.5
		c8.3,4.9,15.2,12,19.8,20.5c4.8,8.7,7.2,18.6,7.2,29.8c0,6.2-0.8,12.4-2.6,18.4c-1.6,5.6-4.2,10.9-7.5,15.7
		c-3.2,5.1-7.3,9.6-12.2,13.2c-5.2,3.6-11,6.4-17,8.5c-3.4,1.2-6.3,1.1-8.8-0.2c-2.3-1.2-4.1-3.3-5-5.8c-0.9-2.4-0.7-5.2,0.4-7.5
		c1.2-2.4,3.6-4.3,7.1-5.7c3.9-1.2,7.6-3,10.9-5.2c3.1-2.3,5.8-5.1,8-8.4c2.1-3.2,3.8-6.7,4.8-10.4c1.1-4.1,1.7-8.3,1.7-12.5
		c0.1-6.8-1.4-13.5-4.6-19.5c-2.9-5.6-7.3-10.2-12.6-13.4c-5.6-3.3-12-4.9-18.5-4.8C49,33.7,42.6,35.3,37,38.6
		c-5.3,3.2-9.7,7.9-12.5,13.4c-3,6-4.6,12.7-4.5,19.5c0,4.3,0.5,8.5,1.7,12.6c1,3.8,2.7,7.3,4.8,10.6c2.9,4.3,6.8,7.9,11.4,10.3
		c2.4,1.2,4.8,2.3,7.4,3.1c3.6,1.3,5.9,3.2,7.1,5.7c1.2,2.3,1.3,5,0.4,7.5c-0.9,2.5-2.7,4.6-5,5.8c-2.5,1.3-5.5,1.4-9,0.2
		C33,125.3,27.5,122.4,22.4,118.9z"/>
	<path class="st0" d="M55.6,20.2c-11.8,0-18.5-8.9-19.2-9.9c-2.1-2.9-1.4-7,1.5-9.1s7-1.4,9.1,1.5c0.1,0.2,3.4,4.6,8.9,4.5
		c3.3-0.2,6.4-1.8,8.4-4.5c2.1-2.9,6.1-3.6,9.1-1.5s3.6,6.1,1.5,9.1l0,0c-1.2,1.6-7.5,9.7-18.7,9.9L55.6,20.2z"/>
	<circle cx="69.2" cy="81.4" r="2.6"/>
	<path d="M69.2,89.9c-4.7,0-8.6-3.8-8.6-8.6c0-4.7,3.8-8.6,8.6-8.6c4.7,0,8.6,3.8,8.6,8.6c0,0,0,0,0,0
		C77.8,86.1,73.9,89.9,69.2,89.9z M69.2,78c-1.9,0-3.4,1.5-3.4,3.4c0,1.9,1.5,3.4,3.4,3.4c1.9,0,3.4-1.5,3.4-3.4c0,0,0,0,0,0
		C72.6,79.5,71.1,78,69.2,78L69.2,78z"/>
	<circle cx="69.2" cy="77" r="4.3"/>
	<circle cx="42.1" cy="81.4" r="2.6"/>
	<path d="M42.1,89.9c-4.7,0-8.6-3.8-8.6-8.6c0-4.7,3.8-8.6,8.6-8.6s8.6,3.8,8.6,8.6l0,0C50.6,86.1,46.8,89.9,42.1,89.9z M42.1,78
		c-1.9,0-3.4,1.5-3.4,3.4c0,1.9,1.5,3.4,3.4,3.4c1.9,0,3.4-1.5,3.4-3.4c0,0,0,0,0,0C45.4,79.5,43.9,78,42.1,78L42.1,78z"/>
	<circle cx="42.1" cy="78.8" r="4.3"/>
</g>
<g>
	<path class="st0" d="M-136.5,118.9c-4.9-3.5-9.1-7.9-12.4-13c-3.2-4.8-5.7-10.1-7.4-15.7c-1.8-6.1-2.7-12.4-2.7-18.7
		c0-11.1,2.4-21.1,7.2-29.8c4.6-8.5,11.5-15.6,19.9-20.5c8.6-5,18.4-7.6,28.4-7.5c10.1-0.2,20,2.4,28.7,7.5
		c8.3,4.9,15.2,12,19.8,20.5c4.8,8.7,7.2,18.6,7.2,29.8c0,6.2-0.8,12.4-2.6,18.4c-1.6,5.6-4.2,10.9-7.5,15.7
		c-3.2,5.1-7.3,9.6-12.2,13.2c-5.2,3.6-11,6.4-17,8.5c-3.4,1.2-6.3,1.1-8.8-0.2c-2.3-1.2-4.1-3.3-5-5.8c-0.9-2.4-0.7-5.2,0.4-7.5
		c1.2-2.4,3.6-4.3,7.1-5.7c3.9-1.2,7.6-3,10.9-5.2c3.1-2.3,5.8-5.1,8-8.4c2.1-3.2,3.8-6.7,4.8-10.4c1.1-4.1,1.7-8.3,1.7-12.5
		c0.1-6.8-1.4-13.5-4.6-19.5c-2.9-5.6-7.3-10.2-12.6-13.4c-5.6-3.3-12-4.9-18.5-4.8c-6.5-0.1-12.9,1.5-18.5,4.8
		c-5.3,3.2-9.7,7.9-12.5,13.4c-3,6-4.6,12.7-4.5,19.5c0,4.3,0.5,8.5,1.7,12.6c1,3.8,2.7,7.3,4.8,10.6c2.9,4.3,6.8,7.9,11.4,10.3
		c2.4,1.2,4.8,2.3,7.4,3.1c3.6,1.3,5.9,3.2,7.1,5.7c1.2,2.3,1.3,5,0.4,7.5c-0.9,2.5-2.7,4.6-5,5.8c-2.5,1.3-5.5,1.4-9,0.2
		C-125.9,125.3-131.4,122.4-136.5,118.9z"/>
	<path class="st0" d="M-103.2,20.2c-11.8,0-18.5-8.9-19.2-9.9c-2.1-2.9-1.4-7,1.5-9.1s7-1.4,9.1,1.5c0.1,0.2,3.4,4.6,8.9,4.5
		c3.3-0.2,6.4-1.8,8.4-4.5c2.1-2.9,6.1-3.6,9.1-1.5s3.6,6.1,1.5,9.1l0,0c-1.2,1.6-7.5,9.7-18.7,9.9L-103.2,20.2z"/>
	<circle cx="-89.7" cy="81.4" r="2.6"/>
	<path d="M-89.7,89.9c-4.7,0-8.6-3.8-8.6-8.6s3.8-8.6,8.6-8.6c4.7,0,8.6,3.8,8.6,8.6c0,0,0,0,0,0C-81.1,86.1-84.9,89.9-89.7,89.9z
		 M-89.7,78c-1.9,0-3.4,1.5-3.4,3.4c0,1.9,1.5,3.4,3.4,3.4c1.9,0,3.4-1.5,3.4-3.4c0,0,0,0,0,0C-86.3,79.5-87.8,78-89.7,78L-89.7,78z
		"/>
	<circle cx="-89.7" cy="81.4" r="4.3"/>
	<circle cx="-116.8" cy="81.4" r="2.6"/>
	<path d="M-116.8,89.9c-4.7,0-8.6-3.8-8.6-8.6c0-4.7,3.8-8.6,8.6-8.6c4.7,0,8.6,3.8,8.6,8.6l0,0C-108.3,86.1-112.1,89.9-116.8,89.9z
		 M-116.8,78c-1.9,0-3.4,1.5-3.4,3.4c0,1.9,1.5,3.4,3.4,3.4s3.4-1.5,3.4-3.4c0,0,0,0,0,0C-113.5,79.5-115,78-116.8,78L-116.8,78z"/>
	<circle cx="-116.8" cy="81.4" r="4.3"/>
</g>
</svg>
